# AST/ASF file generated using VICON BodyLanguage
# -----------------------------------------------
:version 1.10
:name VICON
:units
  mass 1.0
  length 0.45
  angle deg
:documentation
   .ast/.asf automatically generated from VICON data using
   VICON BodyBuilder and BodyLanguage model FoxedUp or BRILLIANT.MOD
:root
   order TX TY TZ RX RY RZ
   axis XYZ
   position 0 0 0  
   orientation 0 0 0 
:bonedata
  begin
     id 1 
     name lhipjoint
     direction 0.62366 -0.717238 0.310833 
     length 2.53602 
     axis 0 0 0  XYZ
  end
  begin
     id 2 
     name lfemur
     direction 0.34202 -0.939693 0  
     length 7.40817  
     axis 0 0 20  XYZ
    dof rx ry rz
    limits (-160.0 20.0)
           (-70.0 70.0)
           (-60.0 70.0)
  end
  begin
     id 3 
     name ltibia
     direction 0.34202 -0.939693 0   
     length 7.7045   
     axis 0 0 20   XYZ
    dof rx
    limits (-10.0 170.0)
  end
  begin
     id 4 
     name lfoot
     direction 0.0673888 -0.185149 0.980397   
     length 2.09456   
     axis -90 7.62852e-016 20   XYZ
    dof rx rz
    limits (-45.0 90.0)
           (-70.0 20.0)
  end
  begin
     id 5 
     name ltoes
     direction 1.53575e-011 -4.21994e-011 1   
     length 1.05543   
     axis -90 7.62852e-016 20   XYZ
    dof rx
    limits (-90.0 20.0)
  end
  begin
     id 6 
     name rhipjoint
     direction -0.489018 -0.800347 0.346851   
     length 2.27268  
     axis 0 0 0  XYZ 
  end
  begin
     id 7 
     name rfemur
     direction -0.34202 -0.939693 0   
     length 7.55487   
     axis 0 0 -20   XYZ
    dof rx ry rz
    limits (-160.0 20.0)
           (-70.0 70.0)
           (-70.0 60.0)
  end
  begin
     id 8 
     name rtibia
     direction -0.34202 -0.939693 0   
     length 7.78969   
     axis 0 0 -20   XYZ
    dof rx
    limits (-10.0 170.0)
 end
 begin
     id 9 
     name rfoot
     direction -0.0859318 -0.236096 0.967923   
     length 2.19143  
     axis -90 -7.62852e-016 -20   XYZ
    dof rx rz
    limits (-45.0 90.0)
           (-20.0 70.0)
  end
  begin
     id 10 
     name rtoes
     direction -1.53538e-011 -4.21989e-011 1   
     length 1.09845   
     axis -90 -7.62852e-016 -20   XYZ
    dof rx
    limits (-90.0 20.0)
  end
  begin
     id 11 
     name lowerback
     direction -0.00762546 0.998978 -0.0445553   
     length 1.98161   
     axis 0 0 0   XYZ
    dof rx ry rz
    limits (-20.0 45.0)
           (-30.0 30.0)
           (-30.0 30.0)
  end
  begin
     id 12 
     name upperback
     direction 0.0422361 0.998867 -0.0219156   
     length 1.97558   
     axis 0 0 0   XYZ
    dof rx ry rz
    limits (-20.0 45.0)
           (-30.0 30.0)
           (-30.0 30.0)
  end
  begin
     id 13 
     name thorax
     direction 0.0442465 0.999021 7.47603e-005   
     length 1.97799   
     axis 0 0 0   XYZ
    dof rx ry rz
    limits (-20.0 45.0)
           (-30.0 30.0)
           (-30.0 30.0)
  end
  begin
     id 14 
     name lowerneck
     direction 0.00312169 0.984641 0.174564   
     length 1.78995   
     axis 0 0 0   XYZ
    dof rx ry rz
    limits (-20.0 45.0)
           (-30.0 30.0)
           (-30.0 30.0)
  end
  begin
     id 15 
     name upperneck
     direction -0.0383028 0.985255 -0.166749   
     length 1.83053   
     axis 0 0 0   XYZ
    dof rx ry rz
    limits (-20.0 45.0)
           (-30.0 30.0)
           (-30.0 30.0)
  end
  begin
     id 16
     name head
     direction -0.0129546 0.997059 -0.0755386  
     length 1.84088  
     axis 0 0 0   XYZ
    dof rx ry rz
    limits (-20.0 45.0)
           (-30.0 30.0)
           (-30.0 30.0)
  end
  begin
     id 17 
     name lclavicle
     direction 0.912857 0.370519 -0.171488  
     length 3.51279  
     axis 0 0 0   XYZ
    dof ry rz
    limits (-20.0 10.0)
           (0.0 20.0)
  end
  begin
     id 18 
     name lhumerus
     direction 1 -4.48962e-011 3.64361e-027   
     length 4.95663   
     axis 180 -30 -90   XYZ
    dof rx ry rz
    limits (-60.0 90.0)
           (-90.0 90.0)
           (-90.0 90.0)
  end
  begin
     id 19
     name lradius
     direction 1 -4.48974e-011 5.97202e-027   
     length 3.38177   
     axis 180 -30 -90   XYZ
    dof rx
    limits (-10.0 170.0)
  end
  begin
     id 20
     name lwrist
     direction 1 -4.4896e-011 9.83288e-027   
     length 1.69088   
     axis -9.31221e-015 90 90   XYZ
    dof ry
    limits (-180.0 0.0)
 end
  begin
     id 21 
     name lhand
     direction 1 -4.4902e-011 1.96551e-026   
     length 0.662909   
     axis -1.25475e-014 90 90   XYZ
    dof rx rz
    limits (-90.0 90.0)
           (-45.0 45.0)
  end
  begin
     id 22 
     name lfingers
     direction 1 -4.48971e-011 3.93277e-026   
     length 0.534454   
     axis -2.50945e-014 90 90   XYZ
    dof rx
    limits (0.0 90.0)
  end
  begin
     id 23
     name lthumb
     direction 0.707107 -6.34933e-011 0.707107   
     length 0.767373   
     axis -90 45 -4.80359e-014   XYZ
    dof rx rz
    limits (-45.0 45.0)
           (-45.0 45.0)
  end
  begin
     id 24 
     name rclavicle
     direction -0.900919 0.395364 -0.178976   
     length 3.40627  
     axis 0 0 0   XYZ 
    dof ry rz
    limits (-10.0 20.0)
           (-20.0 0.0)
  end
  begin
     id 25 
     name rhumerus
     direction -1 -4.48969e-011 1.03875e-027  
     length 5.08365   
     axis 180 30 90   XYZ
    dof rx ry rz
    limits (-90.0 60.0)
           (-90.0 90.0)
           (-90.0 90.0)
  end
  begin
     id 26 
     name rradius
     direction -1 -4.48951e-011 5.02733e-027   
     length 3.35984   
     axis 180 30 90   XYZ
    dof rx
    limits (-10.0 170.0)
  end
  begin
     id 27 
     name rwrist
     direction -1 -4.49011e-011 9.82828e-027   
     length 1.67992   
     axis -9.31221e-015 -90 -90   XYZ
    dof ry
    limits (-180.0 0.0)
  end
  begin
     id 28
     name rhand
     direction -1 -4.48894e-011 1.96774e-026   
     length 0.820764   
     axis -1.25475e-014 -90 -90   XYZ
    dof rx rz
    limits (-90.0 90.0)
           (-45.0 45.0)
  end
  begin
     id 29
     name rfingers
     direction -1 -4.49095e-011 3.92833e-026   
     length 0.661721   
     axis -2.50945e-014 -90 -90   XYZ
    dof rx
    limits (0.0 90.0)
  end
  begin
     id 30
     name rthumb
     direction -0.707107 -6.34881e-011 0.707107   
     length 0.950103   
     axis -90 -45 4.80359e-014   XYZ
    dof rx rz
    limits (-45.0 45.0)
           (-45.0 45.0)
  end
:hierarchy
  begin
    root lhipjoint rhipjoint lowerback
    lhipjoint lfemur
    lfemur ltibia
    ltibia lfoot
    lfoot ltoes
    rhipjoint rfemur
    rfemur rtibia
    rtibia rfoot
    rfoot rtoes
    lowerback upperback
    upperback thorax
    thorax lowerneck lclavicle rclavicle
    lowerneck upperneck
    upperneck head
    lclavicle lhumerus
    lhumerus lradius
    lradius lwrist
    lwrist lhand lthumb
    lhand lfingers
    rclavicle rhumerus
    rhumerus rradius
    rradius rwrist
    rwrist rhand rthumb
    rhand rfingers
  end

#!OML:ASF I:\golf\golf\golf 2\Subject 1\2002-09-07\Subject1.ASF
:FULLY-SPECIFIED
:DEGREES
108
root -6.66122 17.8671 0.195204 -118.842 85.1051 -135.49
lowerback 2.56248 1.79548 -1.28118
upperback 4.14271 2.44973 4.70454
thorax 2.578 1.18073 5.58811
lowerneck -14.1368 -3.33384 1.23097
upperneck 41.3225 -1.96829 -2.90746
head 17.538 -0.331572 -1.70886
rclavicle -3.93594e-014 -6.91771e-014
rhumerus -6.64997 -2.77861 -99.3567
rradius 21.5665
rwrist -40.5192
rhand -9.7987 -5.38466
rfingers 7.12502
rthumb 16.1775 -34.7296
lclavicle -3.93594e-014 -6.91771e-014
lhumerus -14.4996 -53.6528 112.657
lradius 32.6735
lwrist 48.6374
lhand -8.22537 73.0932
lfingers 7.12502
lthumb -162.308 77.6917
rfemur -26.0559 -1.41152 11.1759
rtibia 24.8024
rfoot -10.4599 -13.5667
rtoes 19.0262
lfemur -27.8785 4.5047 -6.55288
ltibia 25.2304
lfoot -8.93001 0.969477
ltoes -23.5222
109
root -6.66156 17.8666 0.194557 -119.405 85.1184 -136.066
lowerback 2.534 1.77852 -1.36086
upperback 4.15976 2.42611 4.72708
thorax 2.61054 1.16569 5.65933
lowerneck -14.1874 -3.34255 1.22782
upperneck 41.3305 -1.95689 -2.97071
head 17.5552 -0.336624 -1.73672
rclavicle 7.95139e-015 3.89618e-014
rhumerus -6.723 -2.16542 -99.3323
rradius 21.7844
rwrist -41.0474
rhand -10.2153 -5.33693
rfingers 7.12502
rthumb 15.7763 -34.714
lclavicle 7.95139e-015 3.89618e-014
lhumerus -14.4311 -53.6412 112.671
lradius 32.7184
lwrist 48.6798
lhand -8.02024 73.01
lfingers 7.12502
lthumb -162.111 77.7928
rfemur -26.051 -1.36012 11.1107
rtibia 24.7898
rfoot -10.6652 -13.6471
rtoes 19.7838
lfemur -27.9188 4.50776 -6.60651
ltibia 25.2598
lfoot -8.97891 0.946207
ltoes -23.7046
110
root -6.66236 17.866 0.194056 -119.574 85.085 -136.244
lowerback 2.49931 1.77903 -1.44937
upperback 4.18974 2.42683 4.81035
thorax 2.65495 1.16222 5.80026
lowerneck -14.2387 -3.36817 1.21031
upperneck 41.3032 -1.95485 -3.07341
head 17.5514 -0.354528 -1.78105
rclavicle 1.31198e-014 -1.35174e-014
rhumerus -6.78058 -1.53984 -99.2959
rradius 22.0816
rwrist -42.025
rhand -11.2059 -5.11988
rfingers 7.12502
rthumb 14.8221 -34.5698
lclavicle 1.31198e-014 -1.35174e-014
lhumerus -14.3147 -53.5942 112.723
lradius 32.7281
lwrist 48.6231
lhand -7.5791 72.7171
lfingers 7.12502
lthumb -161.686 78.125
rfemur -26.0433 -1.25616 11.0977
rtibia 24.7827
rfoot -10.7994 -13.7435
rtoes 20.3332
lfemur -27.9463 4.48915 -6.58551
ltibia 25.2746
lfoot -9.00019 0.921808
ltoes -24.0488
111
root -6.66281 17.8666 0.193666 -119.493 85.0257 -136.184
lowerback 2.46659 1.77248 -1.52493
upperback 4.20298 2.41853 4.9045
thorax 2.68197 1.15497 5.94493
lowerneck -14.2706 -3.37438 1.19912
upperneck 41.2767 -1.92747 -3.16689
head 17.5441 -0.359657 -1.81724
rclavicle -3.97569e-016 2.94201e-014
rhumerus -6.68964 -1.89648 -99.1743
rradius 21.8871
rwrist -40.5833
rhand -10.7439 -4.9875
rfingers 7.12502
rthumb 15.2672 -34.4041
lclavicle -3.97569e-016 2.94201e-014
lhumerus -14.2219 -53.539 112.766
lradius 32.7223
lwrist 48.6032
lhand -7.34683 72.5971
lfingers 7.12502
lthumb -161.463 78.2662
rfemur -26.0583 -1.27315 11.154
rtibia 24.7743
rfoot -10.6888 -13.7604
rtoes 20.1137
lfemur -27.9802 4.41639 -6.51343
ltibia 25.2839
lfoot -8.97449 0.974716
ltoes -24.1867
112
root -6.66269 17.8671 0.192698 -119.411 84.9925 -136.115
lowerback 2.44254 1.79281 -1.50452
upperback 4.23087 2.44576 4.90751
thorax 2.72206 1.16829 5.93813
lowerneck -14.3681 -3.3872 1.23927
upperneck 41.2829 -1.96507 -3.17172
head 17.5708 -0.370366 -1.83607
rclavicle -2.8625e-014 -6.36111e-015
rhumerus -6.61718 -1.97442 -99.186
rradius 21.93
rwrist -40.1291
rhand -10.8888 -5.07635
rfingers 7.12502
rthumb 15.1276 -34.5035
lclavicle -2.8625e-014 -6.36111e-015
lhumerus -14.0562 -53.4733 112.652
lradius 32.5253
lwrist 47.9611
lhand -6.66432 71.9767
lfingers 7.12502
lthumb -160.806 78.9504
rfemur -26.0657 -1.30156 11.1875
rtibia 24.7572
rfoot -10.6307 -13.7754
rtoes 19.1486
lfemur -28.0094 4.38707 -6.47825
ltibia 25.3008
lfoot -8.96105 1.04577
ltoes -24.27
113
root -6.66235 17.8669 0.191726 -119.09 84.987 -135.782
lowerback 2.4288 1.83339 -1.42952
upperback 4.27397 2.50015 4.87762
thorax 2.77239 1.19675 5.86522
lowerneck -14.4433 -3.41448 1.26403
upperneck 41.2708 -2.03322 -3.14661
head 17.5806 -0.392234 -1.84297
rclavicle -4.77083e-015 -3.49861e-014
rhumerus -6.55215 -1.94892 -99.2237
rradius 22.0096
rwrist -39.8449
rhand -10.916 -5.18606
rfingers 7.12502
rthumb 15.1014 -34.6152
lclavicle -4.77083e-015 -3.49861e-014
lhumerus -13.8363 -53.3346 112.5
lradius 32.2728
lwrist 47.1139
lhand -5.76113 71.2396
lfingers 7.12502
lthumb -159.938 79.7761
rfemur -26.0499 -1.27553 11.2031
rtibia 24.7388
rfoot -10.6549 -13.738
rtoes 19.0886
lfemur -27.9958 4.365 -6.44737
ltibia 25.3143
lfoot -8.95843 1.14717
ltoes -24.3573
114
root -6.66218 17.8673 0.1911 -118.983 84.9888 -135.664
lowerback 2.40229 1.83994 -1.36724
upperback 4.30653 2.5086 4.84601
thorax 2.82377 1.20178 5.79845
lowerneck -14.4258 -3.41918 1.25846
upperneck 41.2273 -2.06063 -3.10767
head 17.5507 -0.401157 -1.82778
rclavicle -1.35174e-014 -4.6118e-014
rhumerus -6.5808 -1.45405 -99.2877
rradius 22.1964
rwrist -40.0419
rhand -11.1813 -5.3295
rfingers 7.12502
rthumb 14.8458 -34.7776
lclavicle -1.35174e-014 -4.6118e-014
lhumerus -13.783 -53.4156 112.463
lradius 32.3738
lwrist 47.5517
lhand -6.09451 71.5601
lfingers 7.12502
lthumb -160.258 79.4224
rfemur -26.0369 -1.28063 11.2132
rtibia 24.7319
rfoot -10.7048 -13.6781
rtoes 20.1369
lfemur -27.9766 4.36051 -6.43959
ltibia 25.3174
lfoot -8.95635 1.14286
ltoes -24.0581
115
root -6.66159 17.8676 0.190967 -118.98 84.9965 -135.667
lowerback 2.35424 1.82863 -1.36074
upperback 4.3302 2.49248 4.82831
thorax 2.87815 1.1926 5.77905
lowerneck -14.3976 -3.4046 1.21491
upperneck 41.1805 -2.05838 -3.03882
head 17.519 -0.400232 -1.78646
rclavicle 1.70955e-014 -1.90833e-014
rhumerus -6.65029 -0.714724 -99.3611
rradius 22.443
rwrist -40.6084
rhand -11.7453 -5.47453
rfingers 7.12502
rthumb 14.3024 -34.9619
lclavicle 1.70955e-014 -1.90833e-014
lhumerus -13.8145 -53.6466 112.473
lradius 32.5645
lwrist 48.4374
lhand -6.98874 72.2103
lfingers 7.12502
lthumb -161.118 78.6861
rfemur -26.0397 -1.26107 11.2053
rtibia 24.729
rfoot -10.7407 -13.6556
rtoes 21.2314
lfemur -27.9843 4.43235 -6.46673
ltibia 25.3228
lfoot -8.96568 1.03201
ltoes -23.8846
116
root -6.66039 17.8664 0.191594 -119.001 85.0596 -135.692
lowerback 2.33763 1.8363 -1.50137
upperback 4.33676 2.50162 4.85151
thorax 2.88726 1.19228 5.88473
lowerneck -14.4054 -3.40026 1.17923
upperneck 41.1745 -2.04312 -3.03441
head 17.5193 -0.399502 -1.77536
rclavicle -4.29375e-014 -6.83819e-014
rhumerus -6.76291 0.12041 -99.3816
rradius 22.7455
rwrist -41.5348
rhand -12.5543 -5.49749
rfingers 7.12502
rthumb 13.5228 -35.0384
lclavicle -4.29375e-014 -6.83819e-014
lhumerus -13.8072 -53.7254 112.52
lradius 32.5802
lwrist 48.6575
lhand -7.2907 72.432
lfingers 7.12502
lthumb -161.409 78.4364
rfemur -26.0475 -1.25541 11.1509
rtibia 24.7223
rfoot -10.7241 -13.6034
rtoes 21.9071
lfemur -27.9871 4.48824 -6.53766
ltibia 25.335
lfoot -8.98526 1.02683
ltoes -24.1336
117
root -6.66043 17.8661 0.190729 -119.056 85.1027 -135.748
lowerback 2.37965 1.84856 -1.57433
upperback 4.31575 2.51808 4.86241
thorax 2.83673 1.19941 5.93526
lowerneck -14.405 -3.40481 1.17181
upperneck 41.205 -2.03625 -3.04836
head 17.5369 -0.397807 -1.77965
rclavicle -2.62396e-014 -4.45278e-014
rhumerus -6.93913 0.989904 -99.4126
rradius 23.17
rwrist -42.9758
rhand -13.6552 -5.47698
rfingers 7.12502
rthumb 12.4615 -35.0855
lclavicle -2.62396e-014 -4.45278e-014
lhumerus -13.809 -53.6421 112.584
lradius 32.5006
lwrist 48.3594
lhand -7.0928 72.4338
lfingers 7.12502
lthumb -161.218 78.4529
rfemur -26.0511 -1.36551 11.1302
rtibia 24.7135
rfoot -10.5217 -13.5682
rtoes 20.4165
lfemur -27.9832 4.47724 -6.57863
ltibia 25.3448
lfoot -9.03894 1.07998
ltoes -24.2179
118
root -6.66116 17.8673 0.188276 -119.05 85.0467 -135.748
lowerback 2.42035 1.83124 -1.4826
upperback 4.29131 2.49634 4.86322
thorax 2.79419 1.19258 5.88132
lowerneck -14.3872 -3.38994 1.16438
upperneck 41.2336 -2.00395 -3.04889
head 17.5502 -0.384091 -1.77278
rclavicle 3.33958e-014 2.14687e-014
rhumerus -7.0028 1.2853 -99.477
rradius 23.3526
rwrist -43.6188
rhand -14.2276 -5.47207
rfingers 7.12502
rthumb 11.9096 -35.1133
lclavicle 3.33958e-014 2.14687e-014
lhumerus -13.8196 -53.6265 112.602
lradius 32.4038
lwrist 47.9652
lhand -6.81331 72.3199
lfingers 7.12502
lthumb -160.95 78.5931
rfemur -26.0452 -1.42396 11.1829
rtibia 24.7071
rfoot -10.2413 -13.7194
rtoes 16.9038
lfemur -27.997 4.46225 -6.53429
ltibia 25.3462
lfoot -9.05399 1.03544
ltoes -23.7844
119
root -6.66093 17.8684 0.1871 -119.128 84.9817 -135.839
lowerback 2.42779 1.82992 -1.37707
upperback 4.28069 2.49553 4.84919
thorax 2.78347 1.19588 5.80553
lowerneck -14.3907 -3.37953 1.1509
upperneck 41.2553 -2.00119 -2.99553
head 17.5653 -0.376363 -1.74575
rclavicle 3.45885e-014 -4.05521e-014
rhumerus -6.92336 1.20229 -99.5308
rradius 23.2976
rwrist -43.5799
rhand -14.2909 -5.52229
rfingers 7.12502
rthumb 11.8486 -35.1671
lclavicle 3.45885e-014 -4.05521e-014
lhumerus -13.9599 -54.003 112.682
lradius 32.4539
lwrist 48.0956
lhand -7.10088 72.4277
lfingers 7.12502
lthumb -161.226 78.4582
rfemur -26.0368 -1.36021 11.2135
rtibia 24.6929
rfoot -9.501 -14.038
rtoes 10.6616
lfemur -28.0259 4.45015 -6.48673
ltibia 25.3498
lfoot -8.98578 0.976985
ltoes -23.131
120
root -6.66063 17.8689 0.186851 -119.44 84.9962 -136.161
lowerback 2.46232 1.86465 -1.34973
upperback 4.2573 2.54207 4.80349
thorax 2.73733 1.22127 5.73886
lowerneck -14.412 -3.37945 1.14489
upperneck 41.2921 -2.02575 -2.91588
head 17.5929 -0.37377 -1.71344
rclavicle 2.0276e-014 2.54444e-014
rhumerus -6.93057 1.42875 -99.5687
rradius 23.4312
rwrist -44.1437
rhand -14.6831 -5.57508
rfingers 7.12502
rthumb 11.4704 -35.2413
lclavicle 2.0276e-014 2.54444e-014
lhumerus -14.203 -54.4564 112.848
lradius 32.5532
lwrist 48.3057
lhand -7.49034 72.6117
lfingers 7.12502
lthumb -161.601 78.2385
rfemur -26.0375 -1.39214 11.183
rtibia 24.6738
rfoot -10.5533 -13.6614
rtoes 20.1443
lfemur -28.0444 4.41424 -6.51599
ltibia 25.3531
lfoot -8.97284 0.998443
ltoes -23.0523
